<?xml version="1.0" encoding="iso-8859-1"?>
<!-- Generator: Adobe Illustrator 19.0.0, SVG Export Plug-In . SVG Version: 6.00 Build 0)  -->
<svg version="1.1" id="Layer_1" xmlns="http://www.w3.org/2000/svg" xmlns:xlink="http://www.w3.org/1999/xlink" x="0px" y="0px"
	 viewBox="0 0 460 460" style="enable-background:new 0 0 460 460;" xml:space="preserve">
<g>
	<path style="fill:#CCE8FF;" d="M374.9,222.1c-4.399,4.901-11.499,6.3-17.4,3.5c-19.9-9.2-38.7-14.8-62.7-14.8
		c-29.6,0-46.3,7.9-64.8,15.3c-16.599,6.8-34.5,13.2-64.7,13.2c-21.801,0-97.2-10.3-80-38.3c17.7-28.7,43.999-51.8,74.7-65.7V60
		c-16.599,0-30-13.4-30-30c0-16.6,13.401-30,30-30h140c16.599,0,30,13.4,30,30c0,16.6-13.401,30-30,30v75.3
		c32,14.4,59,38.7,76.699,69.1C380.1,210.1,379.299,217.3,374.9,222.1z"/>
	<path style="fill:#B0DBFF;" d="M374.9,222.1c-4.399,4.901-11.499,6.3-17.4,3.5c-19.9-9.2-38.7-14.8-62.7-14.8
		c-29.6,0-46.3,7.9-64.8,15.3V0h70c16.599,0,30,13.4,30,30c0,16.6-13.401,30-30,30v75.3c32,14.4,59,38.7,76.699,69.1
		C380.1,210.1,379.299,217.3,374.9,222.1z"/>
	<g>
		<path style="fill:#FF80AC;" d="M376.699,204.4c-2.699-4.7-6.099-5.8-10.898-8C343.8,186.2,319.299,180.8,294.8,180.8
			c-22.5,0-44.299,4.301-64.8,12.9c-2.1,0.8-4.199,1.7-6.3,2.7c-36,16.6-77.6,18-119.301-1.1c-6.899-3.2-15-0.7-18.999,5.6
			C68.8,227.5,60,258.3,60,290c0,93.7,76.3,170,170,170s170-76.3,170-170C400,259.8,392,230.2,376.699,204.4z"/>
	</g>
	<path style="fill:#F26D99;" d="M400,290c0,93.7-76.3,170-170,170V193.7c20.5-8.6,42.3-12.9,64.8-12.9c24.5,0,49,5.4,71.001,15.601
		c4.8,2.2,8.199,3.3,10.898,8C392,230.2,400,259.8,400,290z"/>
	<path style="fill:#FFEFD9;" d="M294.89,310.21c0,26.13-26.41,41.92-64.89,74.91c-38.48-32.99-64.89-48.78-64.89-74.91
		c0-18.89,13.24-34.83,32.45-34.83c24.65,0,32.44,27.81,32.44,27.81c3.657-14.628,16.946-27.81,32.44-27.81
		c6.3,0,11.96,1.71,16.73,4.69c1.59,0.99,3.08,2.13,4.47,3.38C290.71,289.91,294.89,299.59,294.89,310.21z"/>
	<g>
		<path style="fill:#FFD9B3;" d="M294.89,310.21c0-10.62-4.18-20.3-11.25-26.76c-1.39-1.25-2.88-2.39-4.47-3.38
			c-4.77-2.98-10.43-4.69-16.73-4.69c-15.493,0-28.783,13.181-32.44,27.81v81.93C268.48,352.13,294.89,336.34,294.89,310.21z"/>
	</g>
</g>
<g>
</g>
<g>
</g>
<g>
</g>
<g>
</g>
<g>
</g>
<g>
</g>
<g>
</g>
<g>
</g>
<g>
</g>
<g>
</g>
<g>
</g>
<g>
</g>
<g>
</g>
<g>
</g>
<g>
</g>
</svg>
